<svg width="81" height="72" viewBox="0 0 81 72" fill="none" xmlns="http://www.w3.org/2000/svg">
<g opacity="0.8" clip-path="url(#clip0_14101_7)">
<path d="M13.3001 35.5655L7.70754 45.583L2.30786 35.5655L7.70754 25.5481L13.3001 35.5655Z" fill="url(#paint0_linear_14101_7)"/>
<path d="M13.3001 35.5655L7.70754 45.583L2.30786 35.5655L7.70754 25.5481L13.3001 35.5655Z" fill="url(#paint1_linear_14101_7)" fill-opacity="0.2"/>
<path d="M21.2067 35.5655L11.9501 19.1909L21.2067 2.81635H59.7759L78.6748 35.5655L59.583 68.8927H29.4991L39.1414 52.1328H49.7479L58.8116 35.5655L49.7479 19.1909H31.4276L40.4913 35.5655L21.7853 68.8927L11.9501 52.1328L21.2067 35.5655Z" fill="url(#paint2_linear_14101_7)"/>
<path d="M21.2067 35.5655L11.9501 19.1909L21.2067 2.81635H59.7759L78.6748 35.5655L59.583 68.8927H29.4991L39.1414 52.1328H49.7479L58.8116 35.5655L49.7479 19.1909H31.4276L40.4913 35.5655L21.7853 68.8927L11.9501 52.1328L21.2067 35.5655Z" fill="url(#paint3_linear_14101_7)" fill-opacity="0.2"/>
</g>
<defs>
<linearGradient id="paint0_linear_14101_7" x1="40.4913" y1="2.81635" x2="40.4913" y2="68.8927" gradientUnits="userSpaceOnUse">
<stop stop-color="#FFE998"/>
<stop offset="1" stop-color="#57370D"/>
</linearGradient>
<linearGradient id="paint1_linear_14101_7" x1="40.4913" y1="2.81635" x2="40.4913" y2="68.8927" gradientUnits="userSpaceOnUse">
<stop stop-opacity="0"/>
<stop offset="1"/>
</linearGradient>
<linearGradient id="paint2_linear_14101_7" x1="40.4913" y1="2.81635" x2="40.4913" y2="68.8927" gradientUnits="userSpaceOnUse">
<stop stop-color="#FFE998"/>
<stop offset="1" stop-color="#57370D"/>
</linearGradient>
<linearGradient id="paint3_linear_14101_7" x1="40.4913" y1="2.81635" x2="40.4913" y2="68.8927" gradientUnits="userSpaceOnUse">
<stop stop-opacity="0"/>
<stop offset="1"/>
</linearGradient>
<clipPath id="clip0_14101_7">
<rect width="81" height="72" fill="white"/>
</clipPath>
</defs>
</svg>
