<svg width="251" height="72" viewBox="0 0 251 72" fill="none" xmlns="http://www.w3.org/2000/svg">
<g clip-path="url(#clip0_1_275)">
<path d="M99.205 34V5.65H105.365C111.665 5.65 113.765 8.555 113.765 14.295V24.725C113.765 30.745 111.63 34 105.68 34H99.205ZM103.16 31.165H105.4C109.705 31.165 109.775 28.575 109.775 23.99V14.785C109.775 10.41 109.355 8.59 105.295 8.59H103.16V31.165ZM118.712 34V5.65H129.702V8.59H122.667V17.97H128.372V20.77H122.667V31.165H129.772V34H118.712ZM134.015 34V5.65H145.005V8.59H137.97V17.97H143.675V20.77H137.97V31.165H145.075V34H134.015ZM149.318 34V5.65H156.353C161.428 5.65 163.353 8.555 163.353 13.49C163.353 18.005 161.008 20.805 156.388 20.805H153.273V34H149.318ZM153.273 17.97H155.093C158.488 17.97 159.608 17.025 159.608 13.525C159.608 9.5 159.083 8.485 155.128 8.485H153.273V17.97Z" fill="#C5A059"/>
<path d="M176.232 34V5.65H178.927L186.977 24.48V5.65H190.267V34H187.747L179.592 14.645V34H176.232ZM195.774 34V5.65H206.764V8.59H199.729V17.97H205.434V20.77H199.729V31.165H206.834V34H195.774ZM214.191 34V8.59H209.396V5.65H222.801V8.59H218.146V34H214.191Z" fill="white"/>
<g opacity="0.8" clip-path="url(#clip1_1_275)">
<path d="M13.1415 35.5655L7.54897 45.583L2.14929 35.5655L7.54897 25.5481L13.1415 35.5655Z" fill="url(#paint0_linear_1_275)"/>
<path d="M13.1415 35.5655L7.54897 45.583L2.14929 35.5655L7.54897 25.5481L13.1415 35.5655Z" fill="url(#paint1_linear_1_275)" fill-opacity="0.2"/>
<path d="M21.0482 35.5655L11.7916 19.1909L21.0482 2.81635H59.6173L78.5162 35.5655L59.4245 68.8927H29.3405L38.9828 52.1328H49.5893L58.6531 35.5655L49.5893 19.1909H31.269L40.3327 35.5655L21.6267 68.8927L11.7916 52.1328L21.0482 35.5655Z" fill="url(#paint2_linear_1_275)"/>
<path d="M21.0482 35.5655L11.7916 19.1909L21.0482 2.81635H59.6173L78.5162 35.5655L59.4245 68.8927H29.3405L38.9828 52.1328H49.5893L58.6531 35.5655L49.5893 19.1909H31.269L40.3327 35.5655L21.6267 68.8927L11.7916 52.1328L21.0482 35.5655Z" fill="url(#paint3_linear_1_275)" fill-opacity="0.2"/>
</g>
<path d="M105.89 68.315C100.955 68.315 98.645 64.955 98.365 60.055L101.865 59.11C102.075 62.155 102.845 65.2 105.89 65.2C107.92 65.2 109.005 64.045 109.005 61.875C109.005 59.32 107.71 57.99 105.925 56.415L101.165 52.215C99.275 50.57 98.435 48.785 98.435 45.95C98.435 41.785 100.99 39.405 105.085 39.405C109.6 39.405 111.77 41.75 112.225 46.72L108.865 47.63C108.655 44.83 108.025 42.45 105.085 42.45C103.125 42.45 101.97 43.5 101.97 45.565C101.97 47.28 102.495 48.26 103.825 49.415L108.62 53.615C110.755 55.505 112.68 58.025 112.68 61.56C112.68 65.76 109.845 68.315 105.89 68.315ZM124.043 68.315C118.268 68.315 116.273 64.745 116.273 59.11V48.365C116.273 42.765 118.303 39.405 124.043 39.405C129.748 39.405 131.778 42.8 131.778 48.365V59.145C131.778 64.71 129.748 68.315 124.043 68.315ZM124.043 65.2C127.193 65.2 127.788 63.135 127.788 59.985V47.56C127.788 44.41 127.193 42.485 124.043 42.485C120.858 42.485 120.263 44.41 120.263 47.56V59.985C120.263 63.135 120.858 65.2 124.043 65.2ZM136.715 68V39.65H147.67V42.485H140.67V51.935H146.095V54.735H140.67V68H136.715ZM154.552 68V42.59H149.757V39.65H163.162V42.59H158.507V68H154.552Z" fill="#857878"/>
</g>
<defs>
<linearGradient id="paint0_linear_1_275" x1="40.3327" y1="2.81635" x2="40.3327" y2="68.8927" gradientUnits="userSpaceOnUse">
<stop stop-color="#FFE998"/>
<stop offset="1" stop-color="#57370D"/>
</linearGradient>
<linearGradient id="paint1_linear_1_275" x1="40.3327" y1="2.81635" x2="40.3327" y2="68.8927" gradientUnits="userSpaceOnUse">
<stop stop-opacity="0"/>
<stop offset="1"/>
</linearGradient>
<linearGradient id="paint2_linear_1_275" x1="40.3327" y1="2.81635" x2="40.3327" y2="68.8927" gradientUnits="userSpaceOnUse">
<stop stop-color="#FFE998"/>
<stop offset="1" stop-color="#57370D"/>
</linearGradient>
<linearGradient id="paint3_linear_1_275" x1="40.3327" y1="2.81635" x2="40.3327" y2="68.8927" gradientUnits="userSpaceOnUse">
<stop stop-opacity="0"/>
<stop offset="1"/>
</linearGradient>
<clipPath id="clip0_1_275">
<rect width="251" height="72" fill="white"/>
</clipPath>
<clipPath id="clip1_1_275">
<rect width="81" height="72" fill="white"/>
</clipPath>
</defs>
</svg>
